no_integral_motion
version=1
nRows=253
nColumns=3
inDegrees=yes
endheader
time	r_shoulder_elev	r_elbow_flex
0	0	20
0.01	0	19.99669491
0.02	0	19.98701182
0.03	0	19.9715265
0.04	0	19.95108701
0.05	0	19.92675669
0.06	0	19.89975887
0.07	0	19.87141667
0.08	0	19.84308951
0.09	0	19.81610909
0.1	0	19.79171752
0.11	0	19.77101062
0.12	0	19.75488895
0.13	0	19.74401869
0.14	0	19.73880432
0.15	0	19.73937421
0.16	0	19.74557357
0.17	0	19.75696985
0.18	0	19.77288827
0.19	0	19.79245726
0.2	0	19.81465715
0.21	0	19.83837181
0.22	0	19.86244297
0.23	0	19.88572534
0.24	0	19.90714005
0.25	0	19.92572406
0.26	0	19.94067308
0.27	0	19.95137614
0.28	0	19.95744021
0.29	0	19.95870367
0.3	0	19.95523984
0.31	0	19.94733515
0.32	0	19.93545678
0.33	0	19.92024678
0.34	0	19.90249009
0.35	0	19.8830746
0.36	0	19.86294757
0.37	0	19.84307026
0.38	0	19.82437267
0.39	0	19.8077105
0.4	0	19.79382632
0.41	0	19.78331675
0.42	0	19.77660699
0.43	0	19.773934
0.44	0	19.7753386
0.45	0	19.78066094
0.46	0	19.78954998
0.47	0	19.80149069
0.48	0	19.81583719
0.49	0	19.83184786
0.5	0	19.8487227
0.51	0	19.86564226
0.52	0	19.88180698
0.53	0	19.89647718
0.54	0	19.90901153
0.55	0	19.91890048
0.56	0	19.92579247
0.57	0	19.92951195
0.58	0	19.93006831
0.59	0	19.92765665
0.6	0	19.92263933
0.61	0	19.91552403
0.62	0	19.9069543
0.63	0	19.89768175
0.64	0	19.88853286
0.65	0	19.88037292
0.66	0	19.87406879
0.67	0	19.8704521
0.68	0	19.87028469
0.69	0	19.8742247
0.7	0	19.88279351
0.71	0	19.89636017
0.72	0	19.91513668
0.73	0	19.93917854
0.74	0	19.96839054
0.75	0	20.00253852
0.76	0	20.04126701
0.77	0	20.08412166
0.78	0	20.13057557
0.79	0	20.18005826
0.8	0	20.23198583
0.81	0	20.2857911
0.82	0	20.34095218
0.83	0	20.39701841
0.84	0	20.45363226
0.85	0	20.51054644
0.86	0	20.56763533
0.87	0	20.62490041
0.88	0	20.68246947
0.89	0	20.74058977
0.9	0	20.79961567
0.91	0	20.85999139
0.92	0	20.92222977
0.93	0	20.98688842
0.94	0	21.05454409
0.95	0	21.1257668
0.96	0	21.20109485
0.97	0	21.28101176
0.98	0	21.3659263
0.99	0	21.45615627
1	0	21.5519168
1.01	0	21.65331342
1.02	0	21.76034034
1.03	0	21.87288358
1.04	0	21.99072907
1.05	0	22.11357496
1.06	0	22.24104777
1.07	0	22.37272139
1.08	0	22.50813829
1.09	0	22.64683163
1.1	0	22.78834754
1.11	0	22.93226637
1.12	0	23.07822196
1.13	0	23.22591814
1.14	0	23.37514157
1.15	0	23.52577044
1.16	0	23.67777876
1.17	0	23.83123582
1.18	0	23.98630124
1.19	0	24.14321569
1.2	0	24.30228782
1.21	0	24.46387821
1.22	0	24.62838098
1.23	0	24.7962041
1.24	0	24.96774925
1.25	0	25.14339233
1.26	0	25.32346536
1.27	0	25.50824064
1.28	0	25.69791797
1.29	0	25.8926153
1.3	0	26.09236336
1.31	0	26.29710431
1.32	0	26.50669456
1.33	0	26.7209115
1.34	0	26.93946376
1.35	0	27.16200463
1.36	0	27.38814783
1.37	0	27.61748493
1.38	0	27.84960371
1.39	0	28.08410631
1.4	0	28.32062665
1.41	0	28.55884598
1.42	0	28.79850613
1.43	0	29.03941955
1.44	0	29.28147591
1.45	0	29.52464484
1.46	0	29.76897483
1.47	0	30.01458822
1.48	0	30.26167273
1.49	0	30.51046985
1.5	0	30.7612608
1.51	0	31.01435066
1.52	0	31.27005154
1.53	0	31.5286656
1.54	0	31.79046862
1.55	0	32.05569515
1.56	0	32.32452567
1.57	0	32.59707676
1.58	0	32.87341845
1.59	0	33.15359919
1.6	0	33.43759803
1.61	0	33.72531388
1.62	0	34.01656886
1.63	0	34.31111536
1.64	0	34.60864642
1.65	0	34.90880877
1.66	0	35.21121801
1.67	0	35.51547506
1.68	0	35.82118327
1.69	0	36.12796513
1.7	0	36.435478
1.71	0	36.7434279
1.72	0	37.05158095
1.73	0	37.35977158
1.74	0	37.66790756
1.75	0	37.97597121
1.76	0	38.28401704
1.77	0	38.59216595
1.78	0	38.90059612
1.79	0	39.20953131
1.8	0	39.519227
1.81	0	39.82995518
1.82	0	40.14198851
1.83	0	40.45558456
1.84	0	40.77097104
1.85	0	41.08833261
1.86	0	41.40779995
1.87	0	41.72944148
1.88	0	42.05325833
1.89	0	42.37918244
1.9	0	42.7070782
1.91	0	43.03674717
1.92	0	43.36793592
1.93	0	43.70034633
1.94	0	44.0336481
1.95	0	44.36751877
1.96	0	44.70174438
1.97	0	45.0361746
1.98	0	45.37071454
1.99	0	45.70529977
2	0	46.039873
2.01	0	46.3743841
2.02	0	46.70878976
2.03	0	47.04305286
2.04	0	47.37714151
2.05	0	47.71102791
2.06	0	48.04468701
2.07	0	48.378095
2.08	0	48.71122785
2.09	0	49.04405981
2.1	0	49.37656206
2.11	0	49.7087015
2.12	0	50.0404398
2.13	0	50.37173267
2.14	0	50.70252949
2.15	0	51.0327732
2.16	0	51.36240053
2.17	0	51.69134252
2.18	0	52.01952536
2.19	0	52.34687133
2.2	0	52.67330009
2.21	0	52.99872991
2.22	0	53.32307911
2.23	0	53.64626732
2.24	0	53.96821683
2.25	0	54.28885366
2.26	0	54.6081085
2.27	0	54.92591745
2.28	0	55.24222242
2.29	0	55.55697132
2.3	0	55.87011793
2.31	0	56.18162155
2.32	0	56.49144632
2.33	0	56.79956045
2.34	0	57.10593516
2.35	0	57.41054363
2.36	0	57.71335981
2.37	0	58.01435724
2.38	0	58.31350801
2.39	0	58.61078169
2.4	0	58.9061446
2.41	0	59.19955907
2.42	0	59.49098313
2.43	0	59.78037024
2.44	0	60.06766944
2.45	0	60.35282562
2.46	0	60.63578001
2.47	0	60.91647094
2.48	0	61.19483467
2.49	0	61.47080635
2.5	0	61.74432104
2.51	0	62.01531475
2.52	0	62.28372541
